<?xml version="1.0" encoding="utf-8"?>
<!-- Generator: Adobe Illustrator 24.1.2, SVG Export Plug-In . SVG Version: 6.00 Build 0)  -->
<svg version="1.1" id="Layer_1" xmlns="http://www.w3.org/2000/svg" xmlns:xlink="http://www.w3.org/1999/xlink" x="0px" y="0px"
	 viewBox="0 0 440.56 139.55" style="enable-background:new 0 0 440.56 139.55;" xml:space="preserve">
<style type="text/css">
	.st0{clip-path:url(#SVGID_2_);}
	.st1{clip-path:url(#SVGID_2_);fill:#78C614;}
	.st2{clip-path:url(#SVGID_4_);fill:url(#SVGID_5_);}
	.st3{clip-path:url(#SVGID_7_);fill:url(#SVGID_8_);}
	.st4{clip-path:url(#SVGID_10_);fill:url(#SVGID_11_);}
	.st5{clip-path:url(#SVGID_13_);fill:url(#SVGID_14_);}
	.st6{clip-path:url(#SVGID_16_);fill:url(#SVGID_17_);}
</style>
<polygon points="212.14,97.65 212.14,98.97 208.49,98.97 208.49,107.98 207.12,107.98 207.12,98.97 203.47,98.97 203.47,97.65 "/>
<g>
	<defs>
		<rect id="SVGID_1_" width="440.56" height="139.55"/>
	</defs>
	<clipPath id="SVGID_2_">
		<use xlink:href="#SVGID_1_"  style="overflow:visible;"/>
	</clipPath>
	<path class="st0" d="M222.56,99.03c0.95,1.07,1.43,2.36,1.43,3.82c0,0.14-0.02,0.37-0.04,0.64h-9.07c0.27,2.09,1.9,3.41,4.11,3.41
		c1.57,0,2.75-0.7,3.33-1.75l1.2,0.7c-0.91,1.47-2.54,2.38-4.54,2.38c-1.63,0-2.96-0.52-3.97-1.53c-1.01-1.01-1.53-2.31-1.53-3.88
		c0-1.55,0.5-2.83,1.51-3.86c1.01-1.03,2.29-1.55,3.88-1.55C220.39,97.4,221.63,97.93,222.56,99.03 M214.87,102.17h7.71
		c-0.14-1.09-0.56-1.94-1.26-2.54c-0.7-0.6-1.53-0.91-2.46-0.91C216.71,98.72,215.14,100.12,214.87,102.17"/>
	<polygon class="st0" points="234.17,97.65 235.54,97.65 235.54,107.98 234.17,107.98 234.17,103.47 228.22,103.47 228.22,107.98 
		226.86,107.98 226.86,97.65 228.22,97.65 228.22,102.15 234.17,102.15 	"/>
	<path class="st0" d="M247.81,106.65h1.45v4.09h-1.36v-2.77h-8.43v2.77h-1.36v-4.09h1.26c0.7-0.93,1.05-2.23,1.05-3.9v-5.1h7.4
		V106.65z M246.45,106.65v-7.69h-4.67v3.78c0,1.59-0.25,2.89-0.76,3.9H246.45z"/>
	<path class="st0" d="M260.09,99.03c0.95,1.07,1.43,2.36,1.43,3.82c0,0.14-0.02,0.37-0.04,0.64h-9.07c0.27,2.09,1.9,3.41,4.11,3.41
		c1.57,0,2.75-0.7,3.33-1.75l1.2,0.7c-0.91,1.47-2.54,2.38-4.55,2.38c-1.63,0-2.95-0.52-3.97-1.53c-1.01-1.01-1.53-2.31-1.53-3.88
		c0-1.55,0.5-2.83,1.51-3.86c1.01-1.03,2.29-1.55,3.88-1.55C257.92,97.4,259.16,97.93,260.09,99.03 M252.4,102.17h7.71
		c-0.14-1.09-0.56-1.94-1.26-2.54c-0.7-0.6-1.53-0.91-2.46-0.91C254.24,98.72,252.67,100.12,252.4,102.17"/>
	<path class="st0" d="M273.68,98.97c1.05,1.05,1.57,2.33,1.57,3.84c0,1.51-0.52,2.79-1.57,3.84c-1.03,1.05-2.29,1.57-3.76,1.57
		c-1.84,0-3.22-0.76-4.17-2.27v6.16h-1.36V97.64h1.36v2.03c0.95-1.51,2.33-2.27,4.17-2.27C271.39,97.4,272.65,97.91,273.68,98.97
		 M269.82,106.9c1.14,0,2.11-0.39,2.89-1.18c0.79-0.8,1.18-1.78,1.18-2.91c0-1.14-0.39-2.11-1.18-2.89c-0.79-0.81-1.76-1.2-2.89-1.2
		c-1.14,0-2.11,0.39-2.89,1.2c-0.79,0.78-1.18,1.75-1.18,2.89c0,1.14,0.39,2.11,1.18,2.91C267.71,106.51,268.68,106.9,269.82,106.9"
		/>
	<path class="st0" d="M282.42,101.57c0.97,0,1.78,0.31,2.44,0.91c0.68,0.6,1.01,1.36,1.01,2.29s-0.33,1.72-1.01,2.31
		c-0.66,0.6-1.47,0.89-2.44,0.89h-4.19V97.65h1.36v3.93H282.42z M282.42,106.65c1.16,0,2.09-0.74,2.09-1.88
		c0-1.14-0.93-1.88-2.09-1.88h-2.83v3.76H282.42z M287.32,97.65h1.36v10.33h-1.36V97.65z"/>
	<path class="st0" d="M303.61,100.72c0-1.14,0.93-2.04,2.09-2.04c1.14,0,2.05,0.91,2.05,2.04c0,1.16-0.91,2.09-2.05,2.09
		C304.54,102.81,303.61,101.88,303.61,100.72"/>
	<polygon class="st0" points="329.27,97.65 329.27,98.97 324.02,98.97 324.02,107.98 322.66,107.98 322.66,97.65 	"/>
	<path class="st0" d="M336.03,108.22c-1.51,0-2.81-0.52-3.86-1.55c-1.05-1.05-1.57-2.33-1.57-3.86c0-1.53,0.52-2.81,1.57-3.84
		c1.05-1.05,2.35-1.57,3.86-1.57c1.51,0,2.79,0.52,3.84,1.57c1.05,1.03,1.59,2.31,1.59,3.84c0,1.53-0.54,2.81-1.59,3.86
		C338.82,107.71,337.54,108.22,336.03,108.22 M336.03,106.9c1.14,0,2.11-0.39,2.89-1.18c0.79-0.8,1.18-1.78,1.18-2.91
		c0-1.14-0.39-2.11-1.18-2.89c-0.79-0.81-1.76-1.2-2.89-1.2c-1.14,0-2.11,0.39-2.89,1.2c-0.78,0.78-1.18,1.75-1.18,2.89
		c0,1.14,0.39,2.11,1.18,2.91C333.92,106.51,334.89,106.9,336.03,106.9"/>
	<path class="st0" d="M345.37,106.67c-1.03-1.05-1.55-2.33-1.55-3.86c0-1.53,0.52-2.81,1.55-3.84c1.03-1.05,2.33-1.57,3.88-1.57
		c2.05,0,3.78,1.05,4.53,2.71l-1.12,0.64c-0.56-1.24-1.86-2.02-3.41-2.02c-1.14,0-2.11,0.39-2.89,1.2
		c-0.78,0.79-1.18,1.76-1.18,2.89c0,1.14,0.39,2.11,1.18,2.91c0.78,0.79,1.76,1.18,2.89,1.18c1.55,0,2.81-0.79,3.49-2.03l1.14,0.66
		c-0.85,1.65-2.62,2.69-4.63,2.69C347.7,108.22,346.4,107.71,345.37,106.67"/>
	<path class="st0" d="M363.68,105.15c0,0.85-0.33,1.59-1.01,2.19c-0.66,0.6-1.61,0.89-2.85,0.89c-2.09,0-3.45-0.83-4.09-2.48
		l1.16-0.68c0.43,1.22,1.4,1.84,2.93,1.84c1.59,0,2.5-0.76,2.5-1.84c0-0.97-0.77-1.63-1.98-1.63h-1.51v-1.32h1.09
		c1.18,0,1.9-0.62,1.9-1.67c0-0.99-0.87-1.72-2.21-1.72c-1.3,0-2.15,0.52-2.58,1.55l-1.14-0.66c0.68-1.47,1.92-2.21,3.72-2.21
		c1.09,0,1.96,0.29,2.6,0.87c0.64,0.56,0.97,1.26,0.97,2.09c0,1.05-0.43,1.84-1.3,2.32C363.08,103.12,363.68,103.95,363.68,105.15"
		/>
	<path class="st0" d="M375.33,97.64h1.36v10.33h-1.36v-2.02c-0.95,1.51-2.33,2.27-4.17,2.27c-1.47,0-2.73-0.52-3.78-1.57
		c-1.03-1.05-1.55-2.34-1.55-3.84c0-1.51,0.52-2.79,1.55-3.84c1.05-1.05,2.31-1.57,3.78-1.57c1.84,0,3.22,0.76,4.17,2.27V97.64z
		 M371.26,106.9c1.14,0,2.11-0.39,2.89-1.18c0.79-0.8,1.18-1.78,1.18-2.91c0-1.14-0.39-2.11-1.18-2.89c-0.79-0.81-1.76-1.2-2.89-1.2
		c-1.14,0-2.11,0.39-2.89,1.2c-0.78,0.78-1.18,1.75-1.18,2.89c0,1.14,0.39,2.11,1.18,2.91C369.16,106.51,370.13,106.9,371.26,106.9"
		/>
	<polygon class="st0" points="388.64,107.98 386.82,107.98 381.66,103 381.66,107.98 380.29,107.98 380.29,97.65 381.66,97.65 
		381.66,102.21 386.57,97.65 388.43,97.65 383.1,102.6 	"/>
	<path class="st0" d="M398.23,97.65h1.45l-4.42,11.28c-0.81,2.05-2.36,3.33-4.17,3.18v-1.28c1.24,0.14,2.19-0.58,2.83-2.15
		l0.27-0.64l-4.63-10.39H391l3.88,8.66L398.23,97.65z"/>
	<polygon class="st0" points="410.71,97.65 410.71,107.98 409.35,107.98 409.35,98.97 403.4,98.97 403.4,107.98 402.03,107.98 
		402.03,97.65 	"/>
	<polygon class="st0" points="422.65,107.98 420.84,107.98 415.67,103 415.67,107.98 414.31,107.98 414.31,97.65 415.67,97.65 
		415.67,102.21 420.59,97.65 422.45,97.65 417.12,102.6 	"/>
	<polygon class="st0" points="432.74,97.65 433.9,97.65 433.9,107.98 432.53,107.98 432.53,100.02 426.38,107.98 425.22,107.98 
		425.22,97.65 426.58,97.65 426.58,105.6 	"/>
	<polygon class="st0" points="203.95,78.59 203.95,45.09 226.02,45.09 226.02,49.48 208.52,49.48 208.52,78.59 	"/>
	<path class="st0" d="M235.96,79.09c-4.34,0-7.49-1.09-9.45-3.26s-2.94-5.45-2.94-9.85s0.98-7.69,2.94-9.86s5.11-3.25,9.45-3.25
		c4.37,0,7.53,1.08,9.49,3.25c1.96,2.17,2.94,5.46,2.94,9.86s-0.98,7.68-2.94,9.85C243.49,78,240.33,79.09,235.96,79.09
		 M229.84,72.85c1.22,1.51,3.26,2.26,6.13,2.26c2.86,0,4.9-0.75,6.13-2.26c1.22-1.51,1.83-3.77,1.83-6.78
		c0-3.01-0.61-5.27-1.83-6.76c-1.22-1.49-3.26-2.24-6.13-2.24c-2.86,0-4.9,0.74-6.13,2.24c-1.22,1.49-1.83,3.74-1.83,6.76
		C228.01,69.08,228.61,71.34,229.84,72.85"/>
	<path class="st0" d="M264.71,79.04c-4.55,0-7.73-1.12-9.54-3.37c-1.81-2.24-2.71-5.48-2.71-9.7c0-4.25,0.91-7.5,2.74-9.74
		c1.82-2.24,5.05-3.37,9.7-3.37c4.01,0,7.13,1.25,9.36,3.75l-3.21,3.03c-1.63-1.69-3.68-2.53-6.15-2.53c-2.95,0-5.03,0.75-6.22,2.24
		c-1.19,1.49-1.79,3.73-1.79,6.71c0,3.01,0.59,5.27,1.76,6.78c1.17,1.51,3.26,2.26,6.24,2.26c2.35,0,4.47-0.86,6.37-2.58l2.94,2.8
		c-1.39,1.27-2.79,2.2-4.2,2.8C268.58,78.74,266.82,79.04,264.71,79.04"/>
	<polygon class="st1" points="284.96,78.59 284.96,49.48 272.67,49.48 272.67,45.09 301.87,45.09 301.87,49.48 289.57,49.48 
		289.57,78.59 	"/>
	<path class="st1" d="M312,79.09c-2.02,0-3.77-0.23-5.24-0.68c-1.48-0.45-2.66-1.06-3.55-1.81c-0.89-0.75-1.61-1.71-2.15-2.87
		c-0.54-1.16-0.91-2.35-1.11-3.57c-0.2-1.22-0.29-2.61-0.29-4.18c0-1.96,0.17-3.67,0.52-5.13c0.35-1.46,0.95-2.82,1.81-4.09
		c0.86-1.27,2.13-2.23,3.8-2.89c1.67-0.66,3.71-0.99,6.13-0.99c1.45,0,2.73,0.15,3.84,0.45c1.11,0.3,2.05,0.68,2.8,1.13
		c0.75,0.45,1.39,1.08,1.9,1.88c0.51,0.8,0.9,1.57,1.17,2.31c0.27,0.74,0.48,1.67,0.61,2.8c0.14,1.13,0.22,2.13,0.25,3.01
		c0.03,0.88,0.03,1.96,0,3.25H303.9c0.15,2.5,0.81,4.39,1.97,5.67c1.16,1.28,3.2,1.92,6.13,1.92c1.87,0,3.39-0.2,4.57-0.61
		c1.17-0.41,2.32-1.03,3.44-1.88l2.35,3.07C319.61,78.02,316.16,79.09,312,79.09 M311.77,56.76c-2.71,0-4.64,0.6-5.79,1.79
		c-1.15,1.19-1.82,2.95-2.03,5.27h14.38c-0.06-0.96-0.13-1.72-0.2-2.28c-0.08-0.56-0.24-1.18-0.5-1.88
		c-0.26-0.69-0.6-1.22-1.04-1.58c-0.44-0.36-1.06-0.67-1.88-0.93C313.9,56.88,312.92,56.76,311.77,56.76"/>
	<polygon class="st1" points="328,78.59 328,53.46 332.43,53.46 332.43,63.45 345.85,63.45 345.85,53.46 350.24,53.46 350.24,78.59 
		345.85,78.59 345.85,67.61 332.43,67.61 332.43,78.59 	"/>
	<path class="st1" d="M355.53,86.09V74.7h0.99c1.18,0,1.93-0.21,2.26-0.63c0.33-0.42,0.5-1.25,0.5-2.49V53.46h22.2V74.7h3.8v11.39
		h-4.16v-7.5h-21.47v7.5H355.53z M362.85,74.93h14.28V57.34h-13.43v14.51C363.71,73.33,363.42,74.36,362.85,74.93"/>
	<path class="st1" d="M400.19,79.09c-2.02,0-3.77-0.23-5.24-0.68c-1.48-0.45-2.66-1.06-3.55-1.81c-0.89-0.75-1.61-1.71-2.15-2.87
		c-0.54-1.16-0.91-2.35-1.11-3.57c-0.2-1.22-0.29-2.61-0.29-4.18c0-1.96,0.17-3.67,0.52-5.13c0.35-1.46,0.95-2.82,1.81-4.09
		c0.86-1.27,2.13-2.23,3.8-2.89c1.67-0.66,3.71-0.99,6.13-0.99c1.45,0,2.73,0.15,3.84,0.45c1.11,0.3,2.05,0.68,2.8,1.13
		c0.75,0.45,1.39,1.08,1.9,1.88c0.51,0.8,0.9,1.57,1.17,2.31c0.27,0.74,0.48,1.67,0.61,2.8c0.14,1.13,0.22,2.13,0.25,3.01
		c0.03,0.88,0.03,1.96,0,3.25H392.1c0.15,2.5,0.81,4.39,1.97,5.67c1.16,1.28,3.2,1.92,6.13,1.92c1.87,0,3.39-0.2,4.57-0.61
		c1.17-0.41,2.32-1.03,3.44-1.88l2.35,3.07C407.8,78.02,404.35,79.09,400.19,79.09 M399.97,56.76c-2.71,0-4.64,0.6-5.79,1.79
		c-1.15,1.19-1.82,2.95-2.03,5.27h14.38c-0.06-0.96-0.13-1.72-0.2-2.28c-0.08-0.56-0.24-1.18-0.5-1.88
		c-0.26-0.69-0.6-1.22-1.04-1.58c-0.44-0.36-1.06-0.67-1.88-0.93C402.09,56.88,401.11,56.76,399.97,56.76"/>
	<path class="st1" d="M416.19,86.05V53.68l3.48-0.23l0.36,2.67c1.39-2.17,4.64-3.25,9.76-3.25c3.98,0,6.77,1.13,8.36,3.39
		c1.6,2.26,2.39,5.5,2.39,9.72c0,4.16-0.82,7.37-2.46,9.63c-1.64,2.26-4.47,3.39-8.48,3.39c-2.56,0-4.54-0.24-5.92-0.72
		c-1.39-0.48-2.41-1.25-3.08-2.31v10.08H416.19z M428.85,75.02c2.71,0,4.6-0.75,5.65-2.24c1.05-1.49,1.58-3.71,1.58-6.67
		c0-2.98-0.52-5.24-1.56-6.76c-1.04-1.52-2.93-2.28-5.67-2.28c-2.98,0-5.1,0.68-6.35,2.03c-1.25,1.36-1.88,3.69-1.88,7.01
		c0,3.32,0.61,5.63,1.83,6.94C423.68,74.36,425.81,75.02,428.85,75.02"/>
</g>
<g>
	<defs>
		<path id="SVGID_3_" d="M6.01,98.03C2.41,99.26,0,102.64,0,106.43v24.23c0,5.07,4.14,8.88,8.85,8.89h0.03
			c0.94,0,1.91-0.16,2.87-0.48l101.55-34.72v-43L6.01,98.03z"/>
	</defs>
	<clipPath id="SVGID_4_">
		<use xlink:href="#SVGID_3_"  style="overflow:visible;"/>
	</clipPath>
	
		<linearGradient id="SVGID_5_" gradientUnits="userSpaceOnUse" x1="1.481408e-06" y1="139.55" x2="1" y2="139.55" gradientTransform="matrix(-113.3021 0 0 113.3021 113.3022 -15710.8662)">
		<stop  offset="0" style="stop-color:#A9DF00"/>
		<stop  offset="0.1222" style="stop-color:#89D916"/>
		<stop  offset="0.3317" style="stop-color:#58D039"/>
		<stop  offset="0.5304" style="stop-color:#32C854"/>
		<stop  offset="0.7128" style="stop-color:#17C367"/>
		<stop  offset="0.8732" style="stop-color:#06C073"/>
		<stop  offset="0.9944" style="stop-color:#00BF77"/>
		<stop  offset="1" style="stop-color:#00BF77"/>
	</linearGradient>
	<rect x="0" y="61.35" class="st2" width="113.3" height="78.2"/>
</g>
<g>
	<defs>
		<path id="SVGID_6_" d="M88.59,0v43l62.07,21.22c5.67,1.94,11.56-2.27,11.56-8.27V31.42c0-3.74-2.38-7.06-5.91-8.27L88.59,0z"/>
	</defs>
	<clipPath id="SVGID_7_">
		<use xlink:href="#SVGID_6_"  style="overflow:visible;"/>
	</clipPath>
	
		<linearGradient id="SVGID_8_" gradientUnits="userSpaceOnUse" x1="-1.864925e-06" y1="139.5599" x2="1" y2="139.5599" gradientTransform="matrix(-73.6378 0 0 73.6378 162.2249 -10243.8115)">
		<stop  offset="0" style="stop-color:#008F67"/>
		<stop  offset="0.2561" style="stop-color:#00816D"/>
		<stop  offset="0.6753" style="stop-color:#007174"/>
		<stop  offset="0.9944" style="stop-color:#006B77"/>
		<stop  offset="1" style="stop-color:#006B77"/>
	</linearGradient>
	<rect x="88.59" y="0" class="st3" width="73.64" height="66.16"/>
</g>
<g>
	<defs>
		<path id="SVGID_9_" d="M113.3,104.51l37.39,12.78c5.65,1.93,11.53-2.27,11.53-8.24V84.47c0-3.73-2.37-7.04-5.89-8.24L113.3,61.51
			V104.51z"/>
	</defs>
	<clipPath id="SVGID_10_">
		<use xlink:href="#SVGID_9_"  style="overflow:visible;"/>
	</clipPath>
	
		<linearGradient id="SVGID_11_" gradientUnits="userSpaceOnUse" x1="-2.807064e-06" y1="139.5649" x2="1" y2="139.5649" gradientTransform="matrix(-48.9227 0 0 48.9227 162.2249 -6737.5225)">
		<stop  offset="0" style="stop-color:#008F67"/>
		<stop  offset="0.2561" style="stop-color:#00816D"/>
		<stop  offset="0.6753" style="stop-color:#007174"/>
		<stop  offset="0.9944" style="stop-color:#006B77"/>
		<stop  offset="1" style="stop-color:#006B77"/>
	</linearGradient>
	<rect x="113.3" y="61.51" class="st4" width="48.92" height="57.72"/>
</g>
<g>
	<defs>
		<path id="SVGID_12_" d="M5.93,28.38C2.38,29.6,0,32.93,0,36.68v24.47c0,6.01,5.91,10.24,11.6,8.29l31.38-10.73v-9.24
			c0-6.88,6.77-11.72,13.28-9.49l20.76,7.1l11.56-3.95v-43L5.93,28.38z"/>
	</defs>
	<clipPath id="SVGID_13_">
		<use xlink:href="#SVGID_12_"  style="overflow:visible;"/>
	</clipPath>
	
		<linearGradient id="SVGID_14_" gradientUnits="userSpaceOnUse" x1="1.722465e-07" y1="139.5583" x2="1" y2="139.5583" gradientTransform="matrix(-88.587 0 0 88.587 88.587 -12327.2969)">
		<stop  offset="0" style="stop-color:#A9DF00"/>
		<stop  offset="0.1222" style="stop-color:#89D916"/>
		<stop  offset="0.3317" style="stop-color:#58D039"/>
		<stop  offset="0.5304" style="stop-color:#32C854"/>
		<stop  offset="0.7128" style="stop-color:#17C367"/>
		<stop  offset="0.8732" style="stop-color:#06C073"/>
		<stop  offset="0.9944" style="stop-color:#00BF77"/>
		<stop  offset="1" style="stop-color:#00BF77"/>
	</linearGradient>
	<rect y="0.12" class="st5" width="88.59" height="71.27"/>
</g>
<g>
	<defs>
		<path id="SVGID_15_" d="M44.9,50.3v28.36c0,0.66,0.2,1.29,0.54,1.82l61.73-21.1L56.47,42.03c-0.95-0.32-1.9-0.48-2.84-0.48
			C48.99,41.55,44.9,45.31,44.9,50.3"/>
	</defs>
	<clipPath id="SVGID_16_">
		<use xlink:href="#SVGID_15_"  style="overflow:visible;"/>
	</clipPath>
	
		<linearGradient id="SVGID_17_" gradientUnits="userSpaceOnUse" x1="9.094947e-13" y1="139.55" x2="1" y2="139.55" gradientTransform="matrix(-62.2725 0 0 62.2725 107.175 -8629.1133)">
		<stop  offset="0" style="stop-color:#008F67"/>
		<stop  offset="0.2561" style="stop-color:#00816D"/>
		<stop  offset="0.6753" style="stop-color:#007174"/>
		<stop  offset="0.9944" style="stop-color:#006B77"/>
		<stop  offset="1" style="stop-color:#006B77"/>
	</linearGradient>
	<rect x="44.9" y="41.55" class="st6" width="62.27" height="38.92"/>
</g>
</svg>
