<?xml version="1.0" encoding="utf-8"?>
<!-- Generator: Adobe Illustrator 24.1.2, SVG Export Plug-In . SVG Version: 6.00 Build 0)  -->
<svg version="1.1" id="_x32__МО" xmlns="http://www.w3.org/2000/svg" xmlns:xlink="http://www.w3.org/1999/xlink" x="0px" y="0px"
	 viewBox="0 0 440.56 139.55" style="enable-background:new 0 0 440.56 139.55;" xml:space="preserve">
<style type="text/css">
	.st0{fill:#FFFFFF;}
	.st1{fill:#78C614;}
	.st2{fill:url(#SVGID_1_);}
	.st3{fill:url(#SVGID_2_);}
	.st4{fill:url(#SVGID_3_);}
	.st5{fill:url(#SVGID_4_);}
	.st6{fill:url(#SVGID_5_);}
</style>
<g id="_x32__1_">
	<g>
		<path class="st0" d="M212.14,97.64v1.32h-3.66v9.01h-1.36v-9.01h-3.66v-1.32H212.14z"/>
		<path class="st0" d="M222.56,99.03c0.95,1.07,1.43,2.36,1.43,3.82c0,0.14-0.02,0.37-0.04,0.64h-9.07c0.27,2.09,1.9,3.41,4.11,3.41
			c1.57,0,2.75-0.7,3.33-1.76l1.2,0.7c-0.91,1.47-2.54,2.38-4.54,2.38c-1.63,0-2.96-0.52-3.97-1.53c-1.01-1.01-1.53-2.31-1.53-3.88
			c0-1.55,0.5-2.83,1.51-3.86c1.01-1.03,2.29-1.55,3.88-1.55C220.39,97.4,221.63,97.93,222.56,99.03z M214.87,102.17h7.71
			c-0.14-1.09-0.56-1.94-1.26-2.54c-0.7-0.6-1.53-0.91-2.46-0.91C216.71,98.72,215.14,100.12,214.87,102.17z"/>
		<path class="st0" d="M234.17,97.64h1.36v10.33h-1.36v-4.5h-5.95v4.5h-1.36V97.64h1.36v4.5h5.95V97.64z"/>
		<path class="st0" d="M247.81,106.65h1.45v4.09h-1.36v-2.77h-8.43v2.77h-1.36v-4.09h1.26c0.7-0.93,1.05-2.23,1.05-3.91v-5.1h7.4
			V106.65z M246.45,106.65v-7.69h-4.67v3.78c0,1.59-0.25,2.89-0.76,3.91H246.45z"/>
		<path class="st0" d="M260.09,99.03c0.95,1.07,1.43,2.36,1.43,3.82c0,0.14-0.02,0.37-0.04,0.64h-9.07c0.27,2.09,1.9,3.41,4.11,3.41
			c1.57,0,2.75-0.7,3.33-1.76l1.2,0.7c-0.91,1.47-2.54,2.38-4.54,2.38c-1.63,0-2.96-0.52-3.97-1.53c-1.01-1.01-1.53-2.31-1.53-3.88
			c0-1.55,0.5-2.83,1.51-3.86c1.01-1.03,2.29-1.55,3.88-1.55C257.92,97.4,259.16,97.93,260.09,99.03z M252.4,102.17h7.71
			c-0.14-1.09-0.56-1.94-1.26-2.54c-0.7-0.6-1.53-0.91-2.46-0.91C254.24,98.72,252.67,100.12,252.4,102.17z"/>
		<path class="st0" d="M273.68,98.97c1.05,1.05,1.57,2.33,1.57,3.84s-0.52,2.79-1.57,3.84c-1.03,1.05-2.29,1.57-3.76,1.57
			c-1.84,0-3.22-0.76-4.17-2.27v6.16h-1.36V97.64h1.36v2.02c0.95-1.51,2.33-2.27,4.17-2.27C271.39,97.4,272.65,97.91,273.68,98.97z
			 M269.82,106.9c1.14,0,2.11-0.39,2.89-1.18c0.79-0.81,1.18-1.78,1.18-2.91s-0.39-2.11-1.18-2.89c-0.79-0.81-1.76-1.2-2.89-1.2
			s-2.11,0.39-2.89,1.2c-0.79,0.79-1.18,1.76-1.18,2.89s0.39,2.11,1.18,2.91C267.71,106.51,268.68,106.9,269.82,106.9z"/>
		<path class="st0" d="M282.43,101.57c0.97,0,1.78,0.31,2.44,0.91c0.68,0.6,1.01,1.36,1.01,2.29s-0.33,1.71-1.01,2.31
			c-0.66,0.6-1.47,0.89-2.44,0.89h-4.19V97.64h1.36v3.93H282.43z M282.43,106.65c1.16,0,2.09-0.74,2.09-1.88
			c0-1.14-0.93-1.88-2.09-1.88h-2.83v3.76H282.43z M287.32,97.64h1.36v10.33h-1.36V97.64z"/>
		<path class="st0" d="M303.61,100.72c0-1.14,0.93-2.04,2.09-2.04c1.14,0,2.04,0.91,2.04,2.04c0,1.16-0.91,2.09-2.04,2.09
			C304.54,102.81,303.61,101.88,303.61,100.72z"/>
		<path class="st0" d="M329.27,97.64v1.32h-5.25v9.01h-1.36V97.64H329.27z"/>
		<path class="st0" d="M336.03,108.22c-1.51,0-2.81-0.52-3.86-1.55c-1.05-1.05-1.57-2.33-1.57-3.86s0.52-2.81,1.57-3.84
			c1.05-1.05,2.36-1.57,3.86-1.57c1.51,0,2.79,0.52,3.84,1.57c1.05,1.03,1.59,2.31,1.59,3.84s-0.54,2.81-1.59,3.86
			C338.82,107.71,337.54,108.22,336.03,108.22z M336.03,106.9c1.14,0,2.11-0.39,2.89-1.18c0.79-0.81,1.18-1.78,1.18-2.91
			s-0.39-2.11-1.18-2.89c-0.79-0.81-1.76-1.2-2.89-1.2c-1.14,0-2.11,0.39-2.89,1.2c-0.78,0.79-1.18,1.76-1.18,2.89
			s0.39,2.11,1.18,2.91C333.92,106.51,334.89,106.9,336.03,106.9z"/>
		<path class="st0" d="M345.37,106.67c-1.03-1.05-1.55-2.33-1.55-3.86s0.52-2.81,1.55-3.84c1.03-1.05,2.33-1.57,3.88-1.57
			c2.05,0,3.78,1.05,4.53,2.71l-1.12,0.64c-0.56-1.24-1.86-2.02-3.41-2.02c-1.14,0-2.11,0.39-2.89,1.2
			c-0.78,0.79-1.18,1.76-1.18,2.89s0.39,2.11,1.18,2.91c0.79,0.79,1.76,1.18,2.89,1.18c1.55,0,2.81-0.79,3.49-2.02l1.14,0.66
			c-0.85,1.65-2.62,2.69-4.63,2.69C347.7,108.22,346.4,107.71,345.37,106.67z"/>
		<path class="st0" d="M363.68,105.14c0,0.85-0.33,1.59-1.01,2.19c-0.66,0.6-1.61,0.89-2.85,0.89c-2.09,0-3.45-0.83-4.09-2.48
			l1.16-0.68c0.43,1.22,1.41,1.84,2.93,1.84c1.59,0,2.5-0.76,2.5-1.84c0-0.97-0.76-1.63-1.98-1.63h-1.51v-1.32h1.09
			c1.18,0,1.9-0.62,1.9-1.67c0-0.99-0.87-1.71-2.21-1.71c-1.3,0-2.15,0.52-2.58,1.55l-1.14-0.66c0.68-1.47,1.92-2.21,3.72-2.21
			c1.09,0,1.96,0.29,2.6,0.87c0.64,0.56,0.97,1.26,0.97,2.09c0,1.05-0.43,1.84-1.3,2.31C363.08,103.12,363.68,103.95,363.68,105.14z
			"/>
		<path class="st0" d="M375.33,97.64h1.36v10.33h-1.36v-2.02c-0.95,1.51-2.33,2.27-4.17,2.27c-1.47,0-2.73-0.52-3.78-1.57
			c-1.03-1.05-1.55-2.33-1.55-3.84s0.52-2.79,1.55-3.84c1.05-1.05,2.31-1.57,3.78-1.57c1.84,0,3.22,0.76,4.17,2.27V97.64z
			 M371.26,106.9c1.14,0,2.11-0.39,2.89-1.18c0.79-0.81,1.18-1.78,1.18-2.91s-0.39-2.11-1.18-2.89c-0.79-0.81-1.76-1.2-2.89-1.2
			c-1.14,0-2.11,0.39-2.89,1.2c-0.78,0.79-1.18,1.76-1.18,2.89s0.39,2.11,1.18,2.91C369.15,106.51,370.13,106.9,371.26,106.9z"/>
		<path class="st0" d="M388.64,107.97h-1.82l-5.17-4.98v4.98h-1.36V97.64h1.36v4.57l4.92-4.57h1.86l-5.33,4.96L388.64,107.97z"/>
		<path class="st0" d="M398.23,97.64h1.45l-4.42,11.28c-0.81,2.05-2.36,3.33-4.17,3.18v-1.28c1.24,0.14,2.19-0.58,2.83-2.15
			l0.27-0.64l-4.63-10.39H391l3.88,8.66L398.23,97.64z"/>
		<path class="st0" d="M410.71,97.64v10.33h-1.36v-9.01h-5.95v9.01h-1.36V97.64H410.71z"/>
		<path class="st0" d="M422.65,107.97h-1.82l-5.17-4.98v4.98h-1.36V97.64h1.36v4.57l4.92-4.57h1.86l-5.33,4.96L422.65,107.97z"/>
		<path class="st0" d="M432.74,97.64h1.16v10.33h-1.36v-7.95l-6.16,7.95h-1.16V97.64h1.36v7.95L432.74,97.64z"/>
	</g>
	<g>
		<g>
			<path class="st0" d="M203.95,78.59v-33.5h22.06v4.38h-17.49v29.11H203.95z"/>
			<path class="st0" d="M235.96,79.09c-4.34,0-7.49-1.08-9.45-3.25s-2.94-5.45-2.94-9.85c0-4.4,0.98-7.69,2.94-9.85
				s5.11-3.25,9.45-3.25c4.37,0,7.53,1.08,9.49,3.25c1.96,2.17,2.94,5.46,2.94,9.85c0,4.4-0.98,7.68-2.94,9.85
				C243.49,78,240.33,79.09,235.96,79.09z M229.84,72.85c1.22,1.51,3.26,2.26,6.13,2.26c2.86,0,4.9-0.75,6.13-2.26
				s1.83-3.77,1.83-6.78c0-3.01-0.61-5.27-1.83-6.76s-3.26-2.24-6.13-2.24c-2.86,0-4.91,0.75-6.13,2.24s-1.83,3.75-1.83,6.76
				C228.01,69.08,228.61,71.34,229.84,72.85z"/>
			<path class="st0" d="M264.71,79.04c-4.55,0-7.73-1.12-9.54-3.37c-1.81-2.25-2.71-5.48-2.71-9.7c0-4.25,0.91-7.5,2.74-9.74
				c1.82-2.24,5.05-3.37,9.7-3.37c4.01,0,7.13,1.25,9.36,3.75l-3.21,3.03c-1.63-1.69-3.68-2.53-6.15-2.53
				c-2.95,0-5.03,0.75-6.22,2.24s-1.79,3.73-1.79,6.71c0,3.01,0.59,5.27,1.76,6.78c1.17,1.51,3.25,2.26,6.24,2.26
				c2.35,0,4.48-0.86,6.37-2.58l2.94,2.8c-1.39,1.27-2.79,2.2-4.2,2.8C268.58,78.74,266.82,79.04,264.71,79.04z"/>
			<path class="st1" d="M284.96,78.59V49.48h-12.3v-4.38h29.2v4.38h-12.3v29.11H284.96z"/>
			<path class="st1" d="M312,79.09c-2.02,0-3.77-0.23-5.24-0.68c-1.48-0.45-2.66-1.05-3.55-1.81c-0.89-0.75-1.6-1.71-2.15-2.87
				c-0.54-1.16-0.91-2.35-1.11-3.57c-0.2-1.22-0.29-2.61-0.29-4.18c0-1.96,0.17-3.67,0.52-5.13c0.35-1.46,0.95-2.83,1.81-4.09
				c0.86-1.27,2.13-2.23,3.8-2.89c1.67-0.66,3.71-0.99,6.13-0.99c1.45,0,2.73,0.15,3.84,0.45c1.12,0.3,2.05,0.68,2.8,1.13
				s1.39,1.08,1.9,1.88c0.51,0.8,0.9,1.57,1.17,2.31c0.27,0.74,0.47,1.67,0.61,2.8c0.14,1.13,0.22,2.13,0.25,3.01
				c0.03,0.87,0.03,1.96,0,3.25H303.9c0.15,2.5,0.81,4.39,1.97,5.67c1.16,1.28,3.2,1.92,6.13,1.92c1.87,0,3.39-0.2,4.57-0.61
				c1.17-0.41,2.32-1.03,3.44-1.88l2.35,3.07C319.61,78.02,316.15,79.09,312,79.09z M311.77,56.76c-2.71,0-4.64,0.6-5.79,1.79
				c-1.15,1.19-1.82,2.95-2.03,5.27h14.38c-0.06-0.96-0.13-1.72-0.2-2.28c-0.08-0.56-0.24-1.18-0.5-1.88
				c-0.26-0.69-0.6-1.22-1.04-1.58c-0.44-0.36-1.06-0.67-1.88-0.93C313.9,56.88,312.91,56.76,311.77,56.76z"/>
			<path class="st1" d="M328,78.59V53.46h4.43v9.99h13.43v-9.99h4.38v25.13h-4.38V67.6h-13.43v10.99H328z"/>
			<path class="st1" d="M355.53,86.09V74.7h0.99c1.18,0,1.93-0.21,2.26-0.63c0.33-0.42,0.5-1.25,0.5-2.49V53.46h22.2V74.7h3.8v11.39
				h-4.16v-7.5h-21.47v7.5H355.53z M362.85,74.93h14.29V57.34h-13.43v14.51C363.71,73.33,363.42,74.36,362.85,74.93z"/>
			<path class="st1" d="M400.19,79.09c-2.02,0-3.77-0.23-5.24-0.68c-1.48-0.45-2.66-1.05-3.55-1.81c-0.89-0.75-1.6-1.71-2.15-2.87
				c-0.54-1.16-0.91-2.35-1.11-3.57c-0.2-1.22-0.29-2.61-0.29-4.18c0-1.96,0.17-3.67,0.52-5.13c0.35-1.46,0.95-2.83,1.81-4.09
				c0.86-1.27,2.13-2.23,3.8-2.89c1.67-0.66,3.71-0.99,6.13-0.99c1.45,0,2.73,0.15,3.84,0.45c1.12,0.3,2.05,0.68,2.8,1.13
				s1.39,1.08,1.9,1.88c0.51,0.8,0.9,1.57,1.17,2.31c0.27,0.74,0.47,1.67,0.61,2.8c0.14,1.13,0.22,2.13,0.25,3.01
				c0.03,0.87,0.03,1.96,0,3.25H392.1c0.15,2.5,0.81,4.39,1.97,5.67c1.16,1.28,3.2,1.92,6.13,1.92c1.87,0,3.39-0.2,4.57-0.61
				c1.17-0.41,2.32-1.03,3.44-1.88l2.35,3.07C407.8,78.02,404.35,79.09,400.19,79.09z M399.97,56.76c-2.71,0-4.64,0.6-5.79,1.79
				c-1.15,1.19-1.82,2.95-2.03,5.27h14.38c-0.06-0.96-0.13-1.72-0.2-2.28c-0.08-0.56-0.24-1.18-0.5-1.88
				c-0.26-0.69-0.6-1.22-1.04-1.58c-0.44-0.36-1.06-0.67-1.88-0.93C402.09,56.88,401.11,56.76,399.97,56.76z"/>
			<path class="st1" d="M416.19,86.05V53.68l3.48-0.23l0.36,2.67c1.39-2.17,4.64-3.25,9.76-3.25c3.98,0,6.77,1.13,8.36,3.39
				c1.6,2.26,2.4,5.5,2.4,9.72c0,4.16-0.82,7.37-2.46,9.63c-1.64,2.26-4.47,3.39-8.48,3.39c-2.56,0-4.54-0.24-5.92-0.72
				c-1.39-0.48-2.41-1.25-3.07-2.31v10.08H416.19z M428.85,75.02c2.71,0,4.6-0.75,5.65-2.24c1.05-1.49,1.58-3.71,1.58-6.67
				c0-2.98-0.52-5.24-1.56-6.76c-1.04-1.52-2.93-2.28-5.67-2.28c-2.98,0-5.1,0.68-6.35,2.03c-1.25,1.36-1.88,3.69-1.88,7.01
				c0,3.32,0.61,5.63,1.83,6.94C423.68,74.36,425.81,75.02,428.85,75.02z"/>
		</g>
	</g>
	<linearGradient id="SVGID_1_" gradientUnits="userSpaceOnUse" x1="113.3021" y1="100.4479" x2="-9.094947e-13" y2="100.4479">
		<stop  offset="0" style="stop-color:#A9DF00"/>
		<stop  offset="0.1209" style="stop-color:#89D916"/>
		<stop  offset="0.3309" style="stop-color:#59D039"/>
		<stop  offset="0.5301" style="stop-color:#32C954"/>
		<stop  offset="0.7128" style="stop-color:#17C367"/>
		<stop  offset="0.8734" style="stop-color:#06C073"/>
		<stop  offset="0.9944" style="stop-color:#00BF77"/>
	</linearGradient>
	<path class="st2" d="M113.3,61.35L6.01,98.03c-3.59,1.23-6.01,4.6-6.01,8.4v24.23c0,6.09,5.99,10.37,11.75,8.4l101.55-34.72V61.35z
		"/>
	<linearGradient id="SVGID_2_" gradientUnits="userSpaceOnUse" x1="162.2248" y1="32.3493" x2="88.587" y2="32.3493">
		<stop  offset="0" style="stop-color:#008F67"/>
		<stop  offset="0.2526" style="stop-color:#00826D"/>
		<stop  offset="0.675" style="stop-color:#007174"/>
		<stop  offset="0.9944" style="stop-color:#006B77"/>
	</linearGradient>
	<path class="st3" d="M88.59,0v43l62.07,21.22c5.67,1.94,11.56-2.28,11.56-8.27V31.42c0-3.74-2.38-7.06-5.91-8.27L88.59,0z"/>
	<linearGradient id="SVGID_3_" gradientUnits="userSpaceOnUse" x1="162.2248" y1="89.6388" x2="113.3021" y2="89.6388">
		<stop  offset="0" style="stop-color:#008F67"/>
		<stop  offset="0.2526" style="stop-color:#00826D"/>
		<stop  offset="0.675" style="stop-color:#007174"/>
		<stop  offset="0.9944" style="stop-color:#006B77"/>
	</linearGradient>
	<path class="st4" d="M156.33,76.22L113.3,61.51v43l37.39,12.78c5.65,1.93,11.53-2.27,11.53-8.24V84.46
		C162.22,80.74,159.86,77.43,156.33,76.22z"/>
	<linearGradient id="SVGID_4_" gradientUnits="userSpaceOnUse" x1="88.587" y1="35.0212" x2="-2.358885e-05" y2="35.0212">
		<stop  offset="0" style="stop-color:#A9DF00"/>
		<stop  offset="0.1209" style="stop-color:#89D916"/>
		<stop  offset="0.3309" style="stop-color:#59D039"/>
		<stop  offset="0.5301" style="stop-color:#32C954"/>
		<stop  offset="0.7128" style="stop-color:#17C367"/>
		<stop  offset="0.8734" style="stop-color:#06C073"/>
		<stop  offset="0.9944" style="stop-color:#00BF77"/>
	</linearGradient>
	<path class="st5" d="M42.98,49.47c0-6.88,6.77-11.72,13.28-9.49l20.76,7.1l11.56-3.95v-43L5.93,28.38C2.38,29.59,0,32.93,0,36.68
		v24.47c0,6.01,5.91,10.24,11.6,8.29l31.38-10.73V49.47z"/>
	<linearGradient id="SVGID_5_" gradientUnits="userSpaceOnUse" x1="107.175" y1="61.0121" x2="44.9025" y2="61.0121">
		<stop  offset="0" style="stop-color:#008F67"/>
		<stop  offset="0.2526" style="stop-color:#00826D"/>
		<stop  offset="0.675" style="stop-color:#007174"/>
		<stop  offset="0.9944" style="stop-color:#006B77"/>
	</linearGradient>
	<path class="st6" d="M107.17,59.37L56.46,42.03C50.8,40.09,44.9,44.3,44.9,50.29v28.36c0,0.66,0.2,1.29,0.54,1.82L107.17,59.37z"/>
</g>
</svg>
